<svg xmlns="http://www.w3.org/2000/svg" version="1.1" xmlns:xlink="http://www.w3.org/1999/xlink" xmlns:svgjs="http://svgjs.dev/svgjs" width="1000" height="623" viewBox="0 0 1000 623"><g transform="matrix(1,0,0,1,-0.6060606060606233,0.2522267206477409)"><svg viewBox="0 0 396 247" data-background-color="#080202" preserveAspectRatio="xMidYMid meet" height="623" width="1000" xmlns="http://www.w3.org/2000/svg" xmlns:xlink="http://www.w3.org/1999/xlink"><g id="tight-bounds" transform="matrix(1,0,0,1,0.2400000000000091,-0.09999999999999432)"><svg viewBox="0 0 395.52 247.2" height="247.2" width="395.52"><g><svg></svg></g><g><svg viewBox="0 0 395.52 247.2" height="247.2" width="395.52"><g><g><path xmlns="http://www.w3.org/2000/svg" d="M308.574 247.2c-40.158 0-72.304-1.231-96.437-3.694-23.929-2.438-44.554-7.605-61.873-15.501l158.31 0zM195.487 0c29.807 0 53.896 6.398 72.266 19.195l-141.336 0c17.866-12.797 40.89-19.195 69.07-19.195z" fill="#cd4747" fill-rule="nonzero" stroke="none" stroke-width="1" stroke-linecap="butt" stroke-linejoin="miter" stroke-miterlimit="10" stroke-dasharray="" stroke-dashoffset="0" font-family="none" font-weight="none" font-size="none" text-anchor="none" style="mix-blend-mode: normal" data-fill-palette-color="tertiary"></path></g></g><g transform="matrix(1,0,0,1,67.67202053662453,37.08)"><svg viewBox="0 0 260.1759589267509 173.04" height="173.04" width="260.1759589267509"><g><svg viewBox="0 0 395.52 263.055745359119" height="173.04" width="260.1759589267509"><g transform="matrix(1,0,0,1,0,134.24671348682054)"><svg viewBox="0 0 395.52 128.80903187229848" height="128.80903187229848" width="395.52"><g><svg viewBox="0 0 395.52 128.80903187229848" height="128.80903187229848" width="395.52"><g><svg viewBox="0 0 395.52 82.97015340839859" height="82.97015340839859" width="395.52"><g transform="matrix(1,0,0,1,0,0)"><svg width="395.52" viewBox="1.0048184394836426 -21.725948333740234 253.12440490722656 53.09912872314453" height="82.97015340839859" data-palette-color="#cd4747"><path d="M34.819 26.615c-6.931-1.631-12.429-3.151-16.494-4.559-4.067-1.402-7.439-3.151-10.117-5.247-2.684-2.097-4.712-4.773-6.083-8.027v0c-1.44-3.688-1.492-8.374-0.154-14.059v0c1.562-6.639 4.369-11.204 8.421-13.695 4.053-2.498 9.039-3.051 14.957-1.658v0c5.879 1.383 10.13 3.911 12.752 7.582 2.624 3.665 3.258 8.376 1.904 14.132v0c-0.585 2.485-1.535 4.72-2.851 6.705-1.31 1.986-3.16 3.664-5.551 5.033v0l0.129 0.544 5.88 1.383zM18.104 10.159c2.219 0.522 3.614-0.427 4.184-2.847v0l3.484-14.806c0.57-2.421-0.255-3.892-2.475-4.414v0c-2.226-0.524-3.624 0.425-4.193 2.845v0l-3.484 14.806c-0.57 2.421 0.259 3.893 2.484 4.416zM57.204 26.72c-5.211-0.766-9.069-2.506-11.574-5.22-2.505-2.713-3.38-6.642-2.623-11.787v0l2.456-16.7-2.483-0.365 1.202-8.172 18.432 2.71-1.202 8.172-1.989-0.292-2.83 19.243c-0.161 1.095-0.039 1.935 0.367 2.52 0.406 0.585 1.09 0.949 2.054 1.091v0c0.963 0.142 1.723-0.009 2.28-0.453 0.557-0.444 0.916-1.213 1.077-2.308v0l2.83-19.243-1.989-0.293 1.202-8.172 17.086 2.513-1.201 8.172-2.494-0.367-2.456 16.701c-0.757 5.145-2.682 8.662-5.776 10.551-3.095 1.89-7.217 2.456-12.369 1.699zM97.566 30.54l-19.076-1.57 0.678-8.232 2.512 0.207 1.859-22.594-2.511-0.206 0.677-8.233 19.076 1.571-0.678 8.232-2.511-0.207-1.86 22.594 2.512 0.206zM123.555 22.893l0.091-4.129 10.028 0.222-0.274 12.387-33.282-0.736 0.16-7.248 16.03-23.331-5.239-0.116-0.091 4.129-10.018-0.222 0.274-12.387 32.222 0.713-0.16 7.258-15.98 23.322zM174.146-10.246l0.488 8.246-2.516 0.149 1.339 22.63 2.516-0.149 0.487 8.246-19.006 1.125-0.488-8.246 2.416-0.143-0.491-8.295-7.038 0.416 0.491 8.296 2.416-0.143 0.488 8.245-19.007 1.125-0.488-8.246 2.516-0.149-1.34-22.63-2.515 0.149-0.488-8.246 19.007-1.124 0.488 8.245-2.416 0.143 0.452 7.647 7.038-0.417-0.452-7.646-2.416 0.143-0.488-8.246zM198.394 26.411c-5.21 0.768-9.406 0.214-12.587-1.662-3.181-1.876-5.15-5.387-5.909-10.532v0l-2.461-16.699-2.483 0.366-1.204-8.172 18.431-2.716 1.204 8.172-1.989 0.293 2.836 19.242c0.161 1.095 0.521 1.864 1.078 2.307 0.557 0.443 1.317 0.594 2.28 0.453v0c0.963-0.142 1.647-0.506 2.053-1.091 0.406-0.585 0.528-1.426 0.367-2.521v0l-2.836-19.242-1.989 0.293-1.204-8.172 17.086-2.518 1.204 8.172-2.493 0.368 2.461 16.699c0.758 5.144-0.072 9.067-2.491 11.769-2.419 2.702-6.203 4.432-11.354 5.191zM219.687 22.353l-1.88-8.043 2.454-0.574-5.161-22.075-2.454 0.574-1.88-8.043 22.513-5.263c4.083-0.955 7.466-0.865 10.147 0.267 2.675 1.134 4.376 3.256 5.103 6.366v0c0.451 1.928 0.373 3.661-0.232 5.199-0.606 1.538-1.444 2.785-2.515 3.741-1.064 0.954-2.143 1.682-3.238 2.184v0l0.114 0.487c2.377-0.316 4.643-0.069 6.798 0.742 2.153 0.804 3.604 2.81 4.354 6.017v0c0.801 3.428 0.096 6.239-2.116 8.433-2.213 2.188-5.378 3.763-9.494 4.725v0zM230.71-3.505l2.649-0.619c0.948-0.222 1.599-0.641 1.955-1.258 0.356-0.617 0.407-1.464 0.155-2.543v0l-0.412-1.762c-0.252-1.078-0.674-1.814-1.266-2.21-0.594-0.402-1.365-0.492-2.312-0.271v0l-2.649 0.62zM233.99 10.526l2.99-0.698c0.948-0.222 1.599-0.641 1.955-1.258 0.356-0.617 0.407-1.464 0.155-2.543v0l-0.505-2.161c-0.252-1.078-0.674-1.814-1.266-2.21-0.592-0.396-1.362-0.483-2.311-0.261v0l-2.989 0.699z" opacity="1" transform="matrix(1,0,0,1,0,0)" fill="#cd4747" class="undefined-text-0" data-fill-palette-color="primary" id="text-0"></path></svg></g></svg></g><g transform="matrix(1,0,0,1,118.31980799999998,110.1585614810089)"><svg viewBox="0 0 158.88038400000002 18.65047039128956" height="18.65047039128956" width="158.88038400000002"><g transform="matrix(1,0,0,1,0,0)"><svg width="158.88038400000002" viewBox="2.759999990463257 -39.040000915527344 430.47998046875 50.540000915527344" height="18.65047039128956" data-palette-color="#c13723"><path d="M2.76-30.3L2.76-37.01 18.6-37.01 18.6-30.3 14.7-30.3 14.7-6.69 22.75-6.69Q23.07-6.69 23.38-6.87 23.68-7.06 23.91-7.35 24.15-7.64 24.29-7.98 24.44-8.33 24.44-8.64L24.44-8.64 24.44-13.6 32.35-13.6 32.35 0 2.76 0 2.76-6.69 6.59-6.69 6.59-30.3 2.76-30.3ZM60.01-11.06L41.38-11.06 41.45-10.3Q41.72-9.2 42.37-8.37 43.02-7.54 43.89-6.98 44.77-6.42 45.85-6.14 46.92-5.86 48.02-5.86L48.02-5.86Q49.12-5.86 50.11-5.99 51.1-6.13 52.02-6.36 52.95-6.59 53.83-6.9 54.71-7.2 55.61-7.54L55.61-7.54 58.3-2.54Q56.91-1.68 55.75-1.09 54.59-0.49 53.42-0.1 52.24 0.29 50.93 0.48 49.61 0.66 47.85 0.66L47.85 0.66Q44.55 0.66 41.99-0.43 39.43-1.51 37.68-3.37 35.94-5.22 35.02-7.71 34.1-10.21 34.1-12.99L34.1-12.99Q34.1-15.77 35.07-18.21 36.03-20.65 37.79-22.47 39.55-24.29 41.99-25.34 44.43-26.39 47.41-26.39L47.41-26.39Q50.39-26.39 52.7-25.4 55-24.41 56.59-22.67 58.18-20.92 59.03-18.57 59.89-16.21 59.96-13.5L59.96-13.5Q60.03-12.89 60.04-12.29 60.06-11.69 60.01-11.06L60.01-11.06ZM47.21-20.29L47.21-20.29Q45.85-20.29 44.88-19.96 43.92-19.63 43.26-19.06 42.6-18.48 42.21-17.75 41.82-17.02 41.6-16.21L41.6-16.21 52.17-16.21Q52-17.04 51.68-17.77 51.36-18.51 50.8-19.07 50.24-19.63 49.37-19.96 48.51-20.29 47.21-20.29ZM79.32 0L79.32-1.37Q78.46-0.83 77.75-0.45 77.05-0.07 76.34 0.16 75.63 0.39 74.87 0.5 74.12 0.61 73.21 0.61L73.21 0.61Q70.94 0.61 69.15-0.01 67.35-0.63 66.12-1.72 64.89-2.81 64.23-4.28 63.57-5.76 63.57-7.5L63.57-7.5Q63.57-9.25 64.24-10.74 64.91-12.23 66.18-13.29 67.45-14.36 69.29-14.95 71.14-15.55 73.51-15.55L73.51-15.55Q75.24-15.55 76.67-15.37 78.1-15.19 79.32-14.92L79.32-14.92 79.32-15.7Q79.32-16.65 78.95-17.35 78.58-18.04 77.92-18.49 77.27-18.95 76.34-19.15 75.41-19.36 74.31-19.36L74.31-19.36Q72.02-19.36 70.27-18.91 68.53-18.46 66.91-17.6L66.91-17.6 64.57-22.34Q67.06-24.05 69.78-24.95 72.5-25.85 75.56-25.85L75.56-25.85Q77.92-25.85 79.94-25.33 81.95-24.8 83.39-23.62 84.83-22.44 85.65-20.53 86.47-18.63 86.47-15.89L86.47-15.89 86.47-6.69 89.86-6.69 89.86 0 79.32 0ZM73.75-5.15L73.75-5.15Q75.48-5.15 76.9-5.71 78.32-6.27 79.32-7.08L79.32-7.08 79.32-10.3 73.46-10.3Q72.9-10.3 72.36-10.13 71.82-9.96 71.39-9.64 70.97-9.33 70.71-8.86 70.45-8.4 70.45-7.79L70.45-7.79Q70.45-6.67 71.27-5.91 72.09-5.15 73.75-5.15ZM117.96-25.24L117.96-16.09 111.1-16.09 111.1-18.7Q110.1-18.7 109.27-18.57 108.44-18.43 107.82-18.12 107.19-17.8 106.77-17.24 106.34-16.67 106.17-15.84L106.17-15.84 106.17-6.69 111.32-6.69 111.32 0 94.82 0 94.82-6.69 98.6-6.69 98.6-18.6 94.87-18.6 94.87-25.29 106.12-25.29 106.12-23.51Q107.19-24.37 108.54-24.83 109.88-25.29 111.47-25.29L111.47-25.29Q113.08-25.29 114.79-25.27 116.5-25.24 117.96-25.24L117.96-25.24ZM142.91 0L142.91-14.55Q142.91-16.67 141.79-17.88 140.66-19.09 138.81-19.09L138.81-19.09Q137.54-19.09 136.24-18.53 134.95-17.97 133.73-16.43L133.73-16.43 133.73-6.69 137.83-6.69 137.83 0 122.11 0 122.11-6.69 125.82-6.69 125.82-18.6 122.16-18.6 122.16-25.29 133.68-25.29 133.68-23.07Q135.27-24.32 137.23-25.04 139.2-25.76 141.37-25.76L141.37-25.76Q145.94-25.76 148.4-23.21 150.87-20.65 150.87-15.75L150.87-15.75 150.87-6.69 154.46-6.69 154.46 0 142.91 0ZM200.64-3.76L195 1.2 190.1-3.83Q188.1-1.93 185.57-0.79 183.04 0.34 179.92 0.34L179.92 0.34Q177.43 0.34 175.25-0.54 173.08-1.42 171.47-2.95 169.86-4.49 168.93-6.59 168-8.69 168-11.11L168-11.11Q168-14.21 169.44-16.6 170.88-18.99 173.45-20.8L173.45-20.8Q173.47-20.8 173.52-20.85L173.52-20.85 173.06-21.34Q171.54-22.95 170.72-24.83 169.91-26.71 169.91-29.05L169.91-29.05Q169.91-31.05 170.71-32.86 171.52-34.67 172.95-36.05 174.37-37.43 176.29-38.23 178.21-39.04 180.45-39.04L180.45-39.04Q182.82-39.04 184.75-38.21 186.68-37.38 188.05-36 189.41-34.62 190.16-32.82 190.9-31.03 190.9-29.1L190.9-29.1Q190.9-27.73 190.55-26.46 190.19-25.2 189.57-24.1 188.95-23 188.12-22.08 187.29-21.17 186.36-20.51L186.36-20.51Q185.95-20.21 185.56-19.93 185.17-19.65 184.75-19.38L184.75-19.38 188.75-15.43Q189.1-16.53 189.33-17.54 189.56-18.55 189.71-19.46L189.71-19.46 197.01-19.46Q196.84-17.09 196.19-14.64 195.54-12.18 194.42-9.86L194.42-9.86 200.64-3.76ZM175.72-11.25L175.72-11.25Q175.72-10.45 176.03-9.7 176.35-8.96 176.93-8.37 177.5-7.79 178.31-7.45 179.11-7.1 180.11-7.1L180.11-7.1Q181.65-7.1 182.86-7.63 184.07-8.15 185.04-9.03L185.04-9.03 178.65-15.58Q177.99-15.16 177.44-14.72 176.89-14.28 176.51-13.77 176.13-13.26 175.92-12.63 175.72-12.01 175.72-11.25ZM182.26-25.95L182.26-25.95Q183.04-26.51 183.37-27.28 183.7-28.05 183.7-29.1L183.7-29.1Q183.7-29.76 183.44-30.35 183.19-30.93 182.74-31.38 182.28-31.84 181.7-32.09 181.11-32.35 180.45-32.35L180.45-32.35Q179.67-32.35 179.04-32.1 178.4-31.86 177.94-31.42 177.48-30.98 177.22-30.38 176.96-29.79 176.96-29.1L176.96-29.1Q176.96-28.13 177.32-27.21 177.67-26.29 178.31-25.71L178.31-25.71 179.67-24.37Q180.43-24.78 181.09-25.17 181.75-25.56 182.26-25.95ZM243-25.76L235.45-25.76Q234.09-27.71 232.99-28.53 231.89-29.35 230.62-29.7 229.35-30.05 227.96-30.05L227.96-30.05Q225.91-30.05 224.15-29.14 222.39-28.22 221.11-26.65 219.83-25.07 219.1-22.99 218.36-20.9 218.36-18.55L218.36-18.55Q218.36-16.19 219.08-14.1 219.8-12.01 221.07-10.45 222.34-8.89 224.1-7.97 225.86-7.06 227.96-7.06L227.96-7.06Q229.42-7.06 230.69-7.53 231.96-8.01 233-8.79 234.04-9.57 234.82-10.58 235.6-11.6 236.04-12.7L236.04-12.7 243.9-10.5Q243.14-8.11 241.68-6.07 240.21-4.03 238.15-2.54 236.09-1.05 233.51-0.2 230.94 0.66 227.96 0.66L227.96 0.66Q225.44 0.66 223.15-0.02 220.85-0.71 218.86-1.95 216.87-3.2 215.25-4.96 213.63-6.71 212.48-8.85 211.33-10.99 210.7-13.44 210.06-15.89 210.06-18.55L210.06-18.55Q210.06-22.53 211.45-26.01 212.85-29.49 215.26-32.09 217.68-34.69 220.94-36.19 224.2-37.7 227.96-37.7L227.96-37.7Q230.96-37.7 233.01-36.95 235.06-36.21 237.53-34.01L237.53-34.01 243-34.01 243-25.76ZM248.15-12.74L248.15-12.74Q248.15-15.5 249.15-17.92 250.15-20.34 251.93-22.14 253.71-23.95 256.18-25 258.64-26.05 261.6-26.05L261.6-26.05Q264.55-26.05 267.03-25 269.51-23.95 271.29-22.14 273.07-20.34 274.06-17.92 275.05-15.5 275.05-12.74L275.05-12.74Q275.05-9.99 274.09-7.56 273.12-5.13 271.35-3.31 269.58-1.49 267.1-0.44 264.63 0.61 261.6 0.61L261.6 0.61Q258.55 0.61 256.07-0.44 253.59-1.49 251.83-3.3 250.08-5.1 249.11-7.53 248.15-9.96 248.15-12.74ZM255.45-12.74L255.45-12.74Q255.45-11.3 255.93-10.1 256.42-8.89 257.27-8.01 258.11-7.13 259.22-6.64 260.33-6.15 261.6-6.15L261.6-6.15Q262.89-6.15 264-6.63 265.11-7.1 265.93-7.98 266.75-8.86 267.21-10.07 267.68-11.28 267.68-12.74L267.68-12.74Q267.68-14.26 267.21-15.48 266.75-16.7 265.93-17.55 265.11-18.41 264-18.86 262.89-19.31 261.6-19.29L261.6-19.29Q260.33-19.31 259.22-18.86 258.11-18.41 257.27-17.55 256.42-16.7 255.93-15.48 255.45-14.26 255.45-12.74ZM299.54 0L299.54-14.55Q299.54-16.67 298.41-17.88 297.29-19.09 295.43-19.09L295.43-19.09Q294.16-19.09 292.87-18.53 291.58-17.97 290.36-16.43L290.36-16.43 290.36-6.69 294.46-6.69 294.46 0 278.73 0 278.73-6.69 282.45-6.69 282.45-18.6 278.78-18.6 278.78-25.29 290.31-25.29 290.31-23.07Q291.89-24.32 293.86-25.04 295.82-25.76 298-25.76L298-25.76Q302.56-25.76 305.03-23.21 307.49-20.65 307.49-15.75L307.49-15.75 307.49-6.69 311.08-6.69 311.08 0 299.54 0ZM327.22 11.5L327.22 4.81 332.47 4.81 332.47-0.9Q331.17-0.27 329.84 0.11 328.51 0.49 327.12 0.49L327.12 0.49Q324.22 0.49 321.79-0.55 319.36-1.59 317.61-3.41 315.87-5.22 314.89-7.67 313.91-10.11 313.91-12.89L313.91-12.89Q313.91-15.6 314.88-17.99 315.84-20.39 317.56-22.18 319.28-23.97 321.69-25.01 324.09-26.05 326.97-26.05L326.97-26.05Q328.51-26.05 329.87-25.76 331.22-25.46 332.47-24.93L332.47-24.93 332.47-26.05 339.96-26.05 339.96 4.81 343.72 4.81 343.72 11.5 327.22 11.5ZM327.58-6.3L327.58-6.3Q329.1-6.3 330.36-6.99 331.61-7.69 332.47-8.91L332.47-8.91 332.47-16.75Q331.61-17.94 330.29-18.63 328.98-19.31 327.51-19.31L327.51-19.31Q326.27-19.31 325.14-18.85 324.02-18.38 323.19-17.53 322.36-16.67 321.87-15.48 321.38-14.28 321.38-12.79L321.38-12.79Q321.38-11.28 321.87-10.07 322.36-8.86 323.2-8.02 324.04-7.18 325.17-6.74 326.29-6.3 327.58-6.3ZM362.62-18.6L362.62-25.29 374.58-25.29 374.58-6.69 377.63-6.69 377.63 0 366.91 0 366.91-2.15Q365.62-0.98 363.89-0.34 362.15 0.29 359.88 0.29L359.88 0.29Q357.78 0.29 355.93-0.37 354.07-1.03 352.69-2.36 351.31-3.69 350.52-5.69 349.73-7.69 349.73-10.4L349.73-10.4 349.73-18.6 346.43-18.6 346.43-25.29 357.61-25.29 357.61-10.4Q357.61-7.86 358.91-6.6 360.2-5.35 362.27-5.35L362.27-5.35Q363.74-5.35 364.94-6.25 366.13-7.15 366.67-8.69L366.67-8.69 366.67-18.6 362.62-18.6ZM406.53-11.06L387.91-11.06 387.98-10.3Q388.25-9.2 388.9-8.37 389.54-7.54 390.42-6.98 391.3-6.42 392.37-6.14 393.45-5.86 394.55-5.86L394.55-5.86Q395.65-5.86 396.63-5.99 397.62-6.13 398.55-6.36 399.48-6.59 400.36-6.9 401.24-7.2 402.14-7.54L402.14-7.54 404.83-2.54Q403.43-1.68 402.27-1.09 401.11-0.49 399.94-0.1 398.77 0.29 397.45 0.48 396.13 0.66 394.38 0.66L394.38 0.66Q391.08 0.66 388.52-0.43 385.95-1.51 384.21-3.37 382.46-5.22 381.55-7.71 380.63-10.21 380.63-12.99L380.63-12.99Q380.63-15.77 381.6-18.21 382.56-20.65 384.32-22.47 386.08-24.29 388.52-25.34 390.96-26.39 393.94-26.39L393.94-26.39Q396.92-26.39 399.22-25.4 401.53-24.41 403.12-22.67 404.7-20.92 405.56-18.57 406.41-16.21 406.49-13.5L406.49-13.5Q406.56-12.89 406.57-12.29 406.58-11.69 406.53-11.06L406.53-11.06ZM393.74-20.29L393.74-20.29Q392.37-20.29 391.41-19.96 390.45-19.63 389.79-19.06 389.13-18.48 388.74-17.75 388.35-17.02 388.13-16.21L388.13-16.21 398.7-16.21Q398.53-17.04 398.21-17.77 397.89-18.51 397.33-19.07 396.77-19.63 395.9-19.96 395.04-20.29 393.74-20.29ZM433.24-25.24L433.24-16.09 426.38-16.09 426.38-18.7Q425.38-18.7 424.55-18.57 423.72-18.43 423.1-18.12 422.47-17.8 422.05-17.24 421.62-16.67 421.45-15.84L421.45-15.84 421.45-6.69 426.6-6.69 426.6 0 410.1 0 410.1-6.69 413.88-6.69 413.88-18.6 410.15-18.6 410.15-25.29 421.4-25.29 421.4-23.51Q422.47-24.37 423.82-24.83 425.16-25.29 426.75-25.29L426.75-25.29Q428.36-25.29 430.07-25.27 431.78-25.24 433.24-25.24L433.24-25.24Z" opacity="1" transform="matrix(1,0,0,1,0,0)" fill="#c13723" class="undefined-text-1" data-fill-palette-color="secondary" id="text-1"></path></svg></g></svg></g></svg></g></svg></g><g transform="matrix(1,0,0,1,75.67626591983203,0)"><svg viewBox="0 0 244.16746816033591 128.80903187229848" height="128.80903187229848" width="244.16746816033591"><g><svg xmlns="http://www.w3.org/2000/svg" xmlns:xlink="http://www.w3.org/1999/xlink" version="1.1" x="0" y="0" viewBox="4.999000549316406 26.81999969482422 90.00199890136719 47.47999572753906" enable-background="new 0 0 100 100" xml:space="preserve" height="128.80903187229848" width="244.16746816033591" class="icon-icon-0" data-fill-palette-color="accent" id="icon-0"><path d="M71.261 26.82c-9.318 0-17.377 5.41-21.262 13.242C46.116 32.23 38.058 26.82 28.739 26.82c-13.092 0-23.74 10.648-23.74 23.74s10.648 23.74 23.74 23.74c9.318 0 17.377-5.41 21.26-13.242 3.885 7.832 11.943 13.242 21.262 13.242 13.092 0 23.74-10.648 23.74-23.74S84.353 26.82 71.261 26.82zM39.337 57.73l-3.404 3.408-7.172-7.217-7.215 7.217L18.14 57.73l7.217-7.168-7.127-7.172 3.408-3.408 7.123 7.17 7.172-7.17 3.404 3.408-7.213 7.172L39.337 57.73zM69.103 59.666L58.569 49.135l3.408-3.406 7.125 7.168 11.445-11.443 3.404 3.408L69.103 59.666z" fill="#599825" data-fill-palette-color="accent"></path></svg></g></svg></g><g></g></svg></g></svg></g></svg></g><defs><mask id="68f4707f-03c5-426b-86cc-57a42373b61f"><rect width="640" height="400" fill="white"></rect><rect width="348.05760000000004" height="146.87567855051378" fill="black" y="126.56216072474311" x="145.97119999999998" id="transform-me" transform="matrix(1,0,0,1,-122.24000000000001,-68.19814498433044)"></rect></mask></defs></svg><rect width="395.52" height="247.2" fill="none" stroke="none" visibility="hidden"></rect></g></svg></g></svg>